<svg width="current" height="current" viewBox="0 0 100 100" fill="none" xmlns="http://www.w3.org/2000/svg">
<g id="feature_search">
<mask id="mask0_94_2829" style="mask-type:alpha" maskUnits="userSpaceOnUse" x="0" y="0" width="100" height="100">
<rect id="Bounding box" width="100" height="100" fill="#D9D9D9"/>
</mask>
<g mask="url(#mask0_94_2829)">
<g id="feature_search_2">
<path d="M64.5832 45.8334C59.3749 45.8334 54.9478 44.0105 51.302 40.3646C47.6562 36.7188 45.8333 32.2917 45.8333 27.0834C45.8333 21.875 47.6562 17.448 51.302 13.8021C54.9478 10.1563 59.3749 8.33337 64.5832 8.33337C69.7916 8.33337 74.2187 10.1563 77.8645 13.8021C81.5103 17.448 83.3333 21.875 83.3333 27.0834C83.3333 28.9584 83.0555 30.7292 82.4999 32.3959C81.9444 34.0625 81.2499 35.625 80.4166 37.0834L90.8333 47.5C91.5971 48.2639 91.9791 49.2362 91.9791 50.4167C91.9791 51.5973 91.5971 52.5695 90.8333 53.3334C90.0694 54.0973 89.0971 54.4792 87.9166 54.4792C86.736 54.4792 85.7638 54.0973 84.9999 53.3334L74.5833 42.9167C73.1249 43.75 71.5624 44.4445 69.8958 45C68.2291 45.5556 66.4582 45.8334 64.5832 45.8334ZM64.5832 37.5C67.4999 37.5 69.9652 36.4931 71.9791 34.4792C73.993 32.4653 74.9999 30 74.9999 27.0834C74.9999 24.1667 73.993 21.7014 71.9791 19.6875C69.9652 17.6737 67.4999 16.6667 64.5832 16.6667C61.6666 16.6667 59.2013 17.6737 57.1874 19.6875C55.1735 21.7014 54.1666 24.1667 54.1666 27.0834C54.1666 30 55.1735 32.4653 57.1874 34.4792C59.2013 36.4931 61.6666 37.5 64.5832 37.5ZM16.6666 91.6667C14.3749 91.6667 12.4131 90.8507 10.7812 89.2188C9.14922 87.5869 8.33325 85.625 8.33325 83.3334V25C8.33325 22.7084 9.14922 20.7466 10.7812 19.1146C12.4131 17.4827 14.3749 16.6667 16.6666 16.6667H34.5833C35.7638 16.6667 36.736 17.1702 37.4999 18.1771C38.2638 19.1841 38.4721 20.2778 38.1249 21.4584C37.9166 22.4306 37.7777 23.4375 37.7083 24.4792C37.6388 25.5209 37.6041 26.5278 37.6041 27.5C37.6041 35.0695 40.2777 41.3889 45.6249 46.4584C50.9721 51.5278 57.3263 54.0625 64.6874 54.0625C66.0069 54.0625 67.3263 53.9757 68.6458 53.8021C69.9652 53.6285 71.3194 53.3334 72.7083 52.9167L80.9374 61.1459C81.7013 61.9098 82.2916 62.7952 82.7083 63.8021C83.1249 64.8091 83.3333 65.8681 83.3333 66.9792V83.3334C83.3333 85.625 82.5173 87.5869 80.8853 89.2188C79.2534 90.8507 77.2916 91.6667 74.9999 91.6667H16.6666Z" fill="#FDFDFD"/>
<path d="M64.5832 45.8334C59.3749 45.8334 54.9478 44.0105 51.302 40.3646C47.6562 36.7188 45.8333 32.2917 45.8333 27.0834C45.8333 21.875 47.6562 17.448 51.302 13.8021C54.9478 10.1563 59.3749 8.33337 64.5832 8.33337C69.7916 8.33337 74.2187 10.1563 77.8645 13.8021C81.5103 17.448 83.3333 21.875 83.3333 27.0834C83.3333 28.9584 83.0555 30.7292 82.4999 32.3959C81.9444 34.0625 81.2499 35.625 80.4166 37.0834L90.8333 47.5C91.5971 48.2639 91.9791 49.2362 91.9791 50.4167C91.9791 51.5973 91.5971 52.5695 90.8333 53.3334C90.0694 54.0973 89.0971 54.4792 87.9166 54.4792C86.736 54.4792 85.7638 54.0973 84.9999 53.3334L74.5833 42.9167C73.1249 43.75 71.5624 44.4445 69.8958 45C68.2291 45.5556 66.4582 45.8334 64.5832 45.8334ZM64.5832 37.5C67.4999 37.5 69.9652 36.4931 71.9791 34.4792C73.993 32.4653 74.9999 30 74.9999 27.0834C74.9999 24.1667 73.993 21.7014 71.9791 19.6875C69.9652 17.6737 67.4999 16.6667 64.5832 16.6667C61.6666 16.6667 59.2013 17.6737 57.1874 19.6875C55.1735 21.7014 54.1666 24.1667 54.1666 27.0834C54.1666 30 55.1735 32.4653 57.1874 34.4792C59.2013 36.4931 61.6666 37.5 64.5832 37.5ZM16.6666 91.6667C14.3749 91.6667 12.4131 90.8507 10.7812 89.2188C9.14922 87.5869 8.33325 85.625 8.33325 83.3334V25C8.33325 22.7084 9.14922 20.7466 10.7812 19.1146C12.4131 17.4827 14.3749 16.6667 16.6666 16.6667H34.5833C35.7638 16.6667 36.736 17.1702 37.4999 18.1771C38.2638 19.1841 38.4721 20.2778 38.1249 21.4584C37.9166 22.4306 37.7777 23.4375 37.7083 24.4792C37.6388 25.5209 37.6041 26.5278 37.6041 27.5C37.6041 35.0695 40.2777 41.3889 45.6249 46.4584C50.9721 51.5278 57.3263 54.0625 64.6874 54.0625C66.0069 54.0625 67.3263 53.9757 68.6458 53.8021C69.9652 53.6285 71.3194 53.3334 72.7083 52.9167L80.9374 61.1459C81.7013 61.9098 82.2916 62.7952 82.7083 63.8021C83.1249 64.8091 83.3333 65.8681 83.3333 66.9792V83.3334C83.3333 85.625 82.5173 87.5869 80.8853 89.2188C79.2534 90.8507 77.2916 91.6667 74.9999 91.6667H16.6666Z" fill="black" fill-opacity="0.12"/>
</g>
</g>
</g>
</svg>
