<svg width="current" height="current" viewBox="0 0 15 11" fill="none" xmlns="http://www.w3.org/2000/svg">
<path d="M0.833333 10.6111C0.597222 10.6111 0.399306 10.5313 0.239583 10.3715C0.0798611 10.2118 0 10.0139 0 9.77778C0 9.54167 0.0798611 9.34375 0.239583 9.18403C0.399306 9.02431 0.597222 8.94445 0.833333 8.94445H14.1667C14.4028 8.94445 14.6007 9.02431 14.7604 9.18403C14.9201 9.34375 15 9.54167 15 9.77778C15 10.0139 14.9201 10.2118 14.7604 10.3715C14.6007 10.5313 14.4028 10.6111 14.1667 10.6111H7.5H0.833333ZM0.833333 6.44445C0.597222 6.44445 0.399306 6.36459 0.239583 6.20486C0.0798611 6.04514 0 5.84723 0 5.61111C0 5.375 0.0798611 5.17709 0.239583 5.01736C0.399306 4.85764 0.597222 4.77778 0.833333 4.77778H14.1667C14.4028 4.77778 14.6007 4.85764 14.7604 5.01736C14.9201 5.17709 15 5.375 15 5.61111C15 5.84723 14.9201 6.04514 14.7604 6.20486C14.6007 6.36459 14.4028 6.44445 14.1667 6.44445H0.833333ZM0.833333 2.27778C0.597222 2.27778 0.399306 2.19792 0.239583 2.0382C0.0798611 1.87848 0 1.68056 0 1.44445C0 1.20834 0.0798611 1.01042 0.239583 0.850698C0.399306 0.690976 0.597222 0.611115 0.833333 0.611115H14.1667C14.4028 0.611115 14.6007 0.690976 14.7604 0.850698C14.9201 1.01042 15 1.20834 15 1.44445C15 1.68056 14.9201 1.87848 14.7604 2.0382C14.6007 2.19792 14.4028 2.27778 14.1667 2.27778H0.833333Z" fill="white" fill-opacity="0.93"/>
<path d="M0.833333 10.6111C0.597222 10.6111 0.399306 10.5313 0.239583 10.3715C0.0798611 10.2118 0 10.0139 0 9.77778C0 9.54167 0.0798611 9.34375 0.239583 9.18403C0.399306 9.02431 0.597222 8.94445 0.833333 8.94445H14.1667C14.4028 8.94445 14.6007 9.02431 14.7604 9.18403C14.9201 9.34375 15 9.54167 15 9.77778C15 10.0139 14.9201 10.2118 14.7604 10.3715C14.6007 10.5313 14.4028 10.6111 14.1667 10.6111H7.5H0.833333ZM0.833333 6.44445C0.597222 6.44445 0.399306 6.36459 0.239583 6.20486C0.0798611 6.04514 0 5.84723 0 5.61111C0 5.375 0.0798611 5.17709 0.239583 5.01736C0.399306 4.85764 0.597222 4.77778 0.833333 4.77778H14.1667C14.4028 4.77778 14.6007 4.85764 14.7604 5.01736C14.9201 5.17709 15 5.375 15 5.61111C15 5.84723 14.9201 6.04514 14.7604 6.20486C14.6007 6.36459 14.4028 6.44445 14.1667 6.44445H0.833333ZM0.833333 2.27778C0.597222 2.27778 0.399306 2.19792 0.239583 2.0382C0.0798611 1.87848 0 1.68056 0 1.44445C0 1.20834 0.0798611 1.01042 0.239583 0.850698C0.399306 0.690976 0.597222 0.611115 0.833333 0.611115H14.1667C14.4028 0.611115 14.6007 0.690976 14.7604 0.850698C14.9201 1.01042 15 1.20834 15 1.44445C15 1.68056 14.9201 1.87848 14.7604 2.0382C14.6007 2.19792 14.4028 2.27778 14.1667 2.27778H0.833333Z" fill="white" fill-opacity="0.92"/>
</svg>
