<svg width="current" height="current" viewBox="0 0 21 21" fill="none" xmlns="http://www.w3.org/2000/svg">
<mask id="mask0_102_150" style="mask-type:alpha" maskUnits="userSpaceOnUse" x="0" y="0" width="21" height="21">
<rect x="0.5" y="0.5" width="20" height="20" fill="#D9D9D9"/>
</mask>
<g mask="url(#mask0_102_150)">
<path d="M8.37671 13.9479C6.83293 13.9479 5.52511 13.412 4.45325 12.3401C3.38139 11.2683 2.84546 9.96043 2.84546 8.41666C2.84546 6.87288 3.38139 5.56506 4.45325 4.4932C5.52511 3.42134 6.83293 2.88541 8.37671 2.88541C9.92049 2.88541 11.2283 3.42134 12.3002 4.4932C13.372 5.56506 13.908 6.87288 13.908 8.41666C13.908 9.03441 13.8141 9.61163 13.6263 10.1483C13.4385 10.685 13.1845 11.1584 12.8645 11.5684L17.4913 16.2002C17.6673 16.3795 17.7553 16.6014 17.7553 16.8657C17.7553 17.13 17.6657 17.3502 17.4863 17.5263C17.3103 17.7023 17.0893 17.7903 16.8233 17.7903C16.5573 17.7903 16.3363 17.7023 16.1602 17.5263L11.5384 12.9044C11.125 13.2245 10.6484 13.4784 10.1084 13.6662C9.56835 13.854 8.99114 13.9479 8.37671 13.9479ZM8.37671 12.0521C9.38849 12.0521 10.2473 11.6991 10.9533 10.9932C11.6592 10.2873 12.0121 9.42843 12.0121 8.41666C12.0121 7.40488 11.6592 6.54603 10.9533 5.84011C10.2473 5.1342 9.38849 4.78124 8.37671 4.78124C7.36493 4.78124 6.50608 5.1342 5.80017 5.84011C5.09425 6.54603 4.74129 7.40488 4.74129 8.41666C4.74129 9.42843 5.09425 10.2873 5.80017 10.9932C6.50608 11.6991 7.36493 12.0521 8.37671 12.0521Z" fill="#1C1B1F"/>
</g>
</svg>
