<svg width="current" height="current" viewBox="0 0 21 19" fill="none" xmlns="http://www.w3.org/2000/svg">
<g id="icon">
<mask id="mask0_85_147" style="mask-type:alpha" maskUnits="userSpaceOnUse" x="0" y="0" width="21" height="19">
<rect id="Bounding box" x="20.5" y="18.5" width="20" height="18" transform="rotate(-180 20.5 18.5)" fill="#D9D9D9"/>
</mask>
<g mask="url(#mask0_85_147)">
<path id="keyboard_arrow_down" d="M10.5 5.90625C10.6244 5.90625 10.7435 5.92776 10.8574 5.97079C10.9712 6.01382 11.0747 6.08198 11.168 6.17527L14.9964 10.0036C15.1724 10.1797 15.2604 10.4007 15.2604 10.6667C15.2604 10.9327 15.1724 11.1537 14.9964 11.3297C14.8204 11.5057 14.5994 11.5938 14.3334 11.5938C14.0674 11.5938 13.8463 11.5057 13.6703 11.3297L10.5 8.15942L7.32973 11.3297C7.1537 11.5057 6.93269 11.5937 6.66669 11.5937C6.40069 11.5937 6.17967 11.5057 6.00364 11.3297C5.82762 11.1537 5.7396 10.9327 5.7396 10.6667C5.7396 10.4007 5.82762 10.1797 6.00364 10.0036L9.832 6.17527C9.92529 6.08198 10.0289 6.01382 10.1427 5.97079C10.2565 5.92776 10.3756 5.90625 10.5 5.90625Z" fill="#5E5F63"/>
</g>
</g>
</svg>
